ModelForces
version=1
nRows=4
nColumns=155
inDegrees=no

This file contains the forces exerted on a model during a simulation.

A force is a generalized force, meaning that it can be either a force (N) or a torque (Nm).

Units are S.I. units (second, meters, Newtons, ...)
Angles are in degrees.

endheader
time	glut_med1_r	glut_med2_r	glut_med3_r	glut_min1_r	glut_min2_r	glut_min3_r	semimem_r	semiten_r	bifemlh_r	bifemsh_r	sar_r	add_long_r	add_brev_r	add_mag1_r	add_mag2_r	add_mag3_r	tfl_r	pect_r	grac_r	glut_max1_r	glut_max2_r	glut_max3_r	iliacus_r	psoas_r	quad_fem_r	gem_r	peri_r	rect_fem_r	vas_med_r	vas_int_r	vas_lat_r	med_gas_r	lat_gas_r	soleus_r	tib_post_r	flex_dig_r	flex_hal_r	tib_ant_r	per_brev_r	per_long_r	per_tert_r	ext_dig_r	ext_hal_r	glut_med1_l	glut_med2_l	glut_med3_l	glut_min1_l	glut_min2_l	glut_min3_l	semimem_l	semiten_l	bifemlh_l	bifemsh_l	sar_l	add_long_l	add_brev_l	add_mag1_l	add_mag2_l	add_mag3_l	tfl_l	pect_l	grac_l	glut_max1_l	glut_max2_l	glut_max3_l	iliacus_l	psoas_l	quad_fem_l	gem_l	peri_l	rect_fem_l	vas_med_l	vas_int_l	vas_lat_l	med_gas_l	lat_gas_l	soleus_l	tib_post_l	flex_dig_l	flex_hal_l	tib_ant_l	per_brev_l	per_long_l	per_tert_l	ext_dig_l	ext_hal_l	ercspn_r	ercspn_l	intobl_r	intobl_l	extobl_r	extobl_l	femur_lat_meniscii_r.femur_lat_r.force.X	femur_lat_meniscii_r.femur_lat_r.force.Y	femur_lat_meniscii_r.femur_lat_r.force.Z	femur_lat_meniscii_r.femur_lat_r.torque.X	femur_lat_meniscii_r.femur_lat_r.torque.Y	femur_lat_meniscii_r.femur_lat_r.torque.Z	femur_lat_meniscii_r.meniscus_lat_r.force.X	femur_lat_meniscii_r.meniscus_lat_r.force.Y	femur_lat_meniscii_r.meniscus_lat_r.force.Z	femur_lat_meniscii_r.meniscus_lat_r.torque.X	femur_lat_meniscii_r.meniscus_lat_r.torque.Y	femur_lat_meniscii_r.meniscus_lat_r.torque.Z	femur_med_meniscii_r.femur_med_r.force.X	femur_med_meniscii_r.femur_med_r.force.Y	femur_med_meniscii_r.femur_med_r.force.Z	femur_med_meniscii_r.femur_med_r.torque.X	femur_med_meniscii_r.femur_med_r.torque.Y	femur_med_meniscii_r.femur_med_r.torque.Z	femur_med_meniscii_r.meniscus_med_r.force.X	femur_med_meniscii_r.meniscus_med_r.force.Y	femur_med_meniscii_r.meniscus_med_r.force.Z	femur_med_meniscii_r.meniscus_med_r.torque.X	femur_med_meniscii_r.meniscus_med_r.torque.Y	femur_med_meniscii_r.meniscus_med_r.torque.Z	femur_med_tibia_r.tibia_upper_r.force.X	femur_med_tibia_r.tibia_upper_r.force.Y	femur_med_tibia_r.tibia_upper_r.force.Z	femur_med_tibia_r.tibia_upper_r.torque.X	femur_med_tibia_r.tibia_upper_r.torque.Y	femur_med_tibia_r.tibia_upper_r.torque.Z	femur_med_tibia_r.femur_med_r.force.X	femur_med_tibia_r.femur_med_r.force.Y	femur_med_tibia_r.femur_med_r.force.Z	femur_med_tibia_r.femur_med_r.torque.X	femur_med_tibia_r.femur_med_r.torque.Y	femur_med_tibia_r.femur_med_r.torque.Z	femur_lat_tibia_r.tibia_upper_r.force.X	femur_lat_tibia_r.tibia_upper_r.force.Y	femur_lat_tibia_r.tibia_upper_r.force.Z	femur_lat_tibia_r.tibia_upper_r.torque.X	femur_lat_tibia_r.tibia_upper_r.torque.Y	femur_lat_tibia_r.tibia_upper_r.torque.Z	femur_lat_tibia_r.femur_lat_r.force.X	femur_lat_tibia_r.femur_lat_r.force.Y	femur_lat_tibia_r.femur_lat_r.force.Z	femur_lat_tibia_r.femur_lat_r.torque.X	femur_lat_tibia_r.femur_lat_r.torque.Y	femur_lat_tibia_r.femur_lat_r.torque.Z	aACL_R	pACL_R	aPCL_R	pPCL_R	aMCL_R	mMCL_R	pMCL_R	aLCL_R	mLCL_R	pLCL_R	aPCL_L	pPCL_L	aMCL_L	aLCL_L
      0.20998931	      9.70181290	      7.14116379	      7.66607365	      3.31861945	      3.89512866	      4.10183204	      0.00000000	    164.83409387	    179.88419305	    341.33189482	    122.66068188	      7.09434962	      5.15793510	      3.67339535	      3.10509716	      5.16586593	      3.18968678	      2.79824544	     92.94508949	      4.60875792	      7.00841457	      5.25327862	     25.33507467	     16.00906765	      4.54852882	      3.29210211	      5.56548348	    114.24989431	     40.69604653	    363.19204606	     56.12289934	      0.00000000	      0.00000000	      0.00000000	      0.00000000	      0.00000000	      0.00000000	     34.58914201	      1.96191782	      4.12122820	     23.72894432	     49.45970941	     11.53880645	      9.70181290	      7.14116379	      7.66607365	      3.31861945	      3.89512866	      4.10183204	     10.59374354	      5.23689677	     10.24704004	      9.05181539	      1.89485035	      7.09434962	      5.15793510	      3.67339535	      3.10509716	      5.16586593	      4.82676234	      2.79824544	      1.95096486	      4.60875792	      7.00841457	      5.25327862	     25.33507467	     16.00906765	      4.54852882	      3.29210211	      5.56548348	     14.18164026	      0.00000000	      0.00000000	      0.00000000	     19.31024153	      9.02020375	     42.92112854	     47.24905260	      4.16494733	      3.62698427	     11.11269175	      5.87949316	     15.81267408	      2.47637471	      7.86437977	      2.51905736	     31.22655758	     31.22655758	     11.45946746	     11.45946746	     29.01683309	     29.01683309	    160.18420016	    121.13395539	     16.61129441	     -9.42585771	      3.78693599	     63.30903413	   -160.18420016	   -121.13395539	    -16.61129441	      3.17592295	     -4.63741920	      3.16159540	      0.03394421	      0.00218358	     -0.02182072	      0.00870142	     -0.00053291	      0.01348204	     -0.03394421	     -0.00218358	      0.02182072	     -0.00008897	      0.00104038	     -0.00003377	   -866.52796740	   -380.69989140	    292.63882236	     -8.17010858	     20.99054289	      3.28998738	    866.52796740	    380.69989140	   -292.63882236	    124.54899243	    -15.21115592	    348.83612095	   -259.62798094	   -125.78247027	    -74.56243501	      4.03801711	     -9.08675040	      1.26859636	    259.62798094	    125.78247027	     74.56243501	    -33.13470103	      6.41547496	    104.55296001	     -2.56727735	      0.00000000	    972.09809914	    632.23991411	     34.01066268	     22.84704295	      0.00000000	      0.00000000	      0.00000000	      0.00000000	      0.00000000	      0.00000000	      0.00000001	      0.00000000
      0.21002080	      9.70092381	      7.14055630	      7.66541343	      3.31834903	      3.89483407	      4.10145619	      0.00000000	    164.78168842	    179.84840378	    341.01305632	    122.61391147	      7.09373900	      5.15751871	      3.67308510	      3.10482822	      5.16537824	      3.19059786	      2.79801585	     92.90356405	      4.60836505	      7.00781558	      5.25282198	     25.33396298	     16.00780327	      4.54815002	      3.29191986	      5.56499475	    114.28160674	     40.63138993	    166.03708566	     56.04834543	      0.00000000	      0.00000000	      0.00000000	      0.00000000	      0.00000000	      0.00000000	     34.59303549	      1.95825808	      4.11778936	     23.72197569	     49.44609649	     11.53554098	      9.70092381	      7.14055630	      7.66541343	      3.31834903	      3.89483407	      4.10145619	     10.59422789	      5.23641977	     10.24600592	      9.05106084	      1.89469667	      7.09373900	      5.15751871	      3.67308510	      3.10482822	      5.16537824	      4.82646052	      2.79801585	      1.95080383	      4.60836505	      7.00781558	      5.25282198	     25.33396298	     16.00780327	      4.54815002	      3.29191986	      5.56499475	     14.18020295	      0.00000000	      0.00000000	      0.00000000	     19.30873737	      9.01945856	     42.91668007	     47.24710539	      4.16400952	      3.62614969	     11.11160084	      5.87887284	     15.81139598	      2.47617960	      7.86393602	      2.51892578	     31.22400723	     31.22400723	     11.45845175	     11.45845175	     29.01591741	     29.01591741	    158.72614319	    121.07102328	     16.74094730	     -9.47709357	      3.75431263	     62.71840834	   -158.72614319	   -121.07102328	    -16.74094730	      3.17586256	     -4.60483759	      3.17655002	      0.03272736	      0.00214890	     -0.02104655	      0.00839305	     -0.00051389	      0.01299823	     -0.03272736	     -0.00214890	      0.02104655	     -0.00008593	      0.00100341	     -0.00003070	   -863.58963150	   -380.11046158	    291.86421181	     -8.14923494	     20.92634934	      3.31482212	    863.58963150	    380.11046158	   -291.86421181	    124.22297946	    -15.16059635	    347.64189387	   -259.09106799	   -125.83374612	    -74.49394919	      4.03748591	     -9.07182844	      1.28173637	    259.09106799	    125.83374612	     74.49394919	    -33.10733623	      6.40337278	    104.33114120	     -2.63771874	      0.00000000	    972.72769967	    633.23515842	     34.23767849	     23.14181555	      0.00000000	      0.00000000	      0.00000000	      0.00000000	      0.00000000	      0.00000000	      0.00000001	      0.00000000
      0.21011809	      9.69817933	      7.13868109	      7.66337547	      3.31751427	      3.89392472	      4.10029601	      0.00000000	    164.62434764	    179.73915147	    340.08135176	    122.47741341	      7.09185411	      5.15623336	      3.67212741	      3.10399806	      5.16387286	      3.19342106	      2.79730714	     92.78124950	      4.60715235	      7.00596658	      5.25141242	     25.33053141	     16.00390039	      4.54698069	      3.29135727	      5.56348533	    114.41348856	     40.44358321	     89.54698692	     55.85922017	      0.00000000	      0.00000000	      0.00000000	      0.00000000	      0.00000000	      0.00000000	     34.60483692	      1.94697611	      4.10711739	     23.70040527	     49.40403707	     11.52539650	      9.69817933	      7.13868109	      7.66337547	      3.31751427	      3.89392472	      4.10029601	     10.59570610	      5.23494735	     10.24281358	      9.04873165	      1.89422227	      7.09185411	      5.15623336	      3.67212741	      3.10399806	      5.16387286	      4.82552885	      2.79730714	      1.95030675	      4.60715235	      7.00596658	      5.25141242	     25.33053141	     16.00390039	      4.54698069	      3.29135727	      5.56348533	     14.17576617	      0.00000000	      0.00000000	      0.00000000	     19.30409061	      9.01715669	     42.90294593	     47.24109433	      4.16111409	      3.62357360	     11.10823335	      5.87695797	     15.80745022	      2.47557736	      7.86256461	      2.51851888	     31.21613468	     31.21613468	     11.45531645	     11.45531645	     29.01309087	     29.01309087	    160.05666947	    121.55286866	     15.68387285	     -9.06148523	      3.77456748	     63.24840884	   -160.05666947	   -121.55286866	    -15.68387285	      3.17844514	     -4.60022522	      3.18804347	      0.03067088	      0.00201162	     -0.01968159	      0.00784847	     -0.00048124	      0.01218113	     -0.03067088	     -0.00201162	      0.01968159	     -0.00007977	      0.00093892	     -0.00002796	   -856.83194888	   -375.43128504	    291.12235726	     -8.07491009	     20.81772134	      3.25095782	    856.83194888	    375.43128504	   -291.12235726	    123.85012438	    -15.05509350	    344.93038500	   -258.24961247	   -124.80432794	    -73.72479444	      3.99977698	     -9.02251814	      1.26255851	    258.24961247	    124.80432794	     73.72479444	    -32.76974128	      6.37586483	    103.99573322	     -2.48237664	      0.00000000	    973.52824649	    633.16630920	     33.77005513	     22.61398752	      0.00000000	      0.00000000	      0.00000000	      0.00000000	      0.00000000	      0.00000000	      0.00000001	      0.00000000
      0.21034300	      9.69184809	      7.13435524	      7.65867420	      3.31558858	      3.89182697	      4.09761965	      0.00000000	    164.31786715	    179.53843797	    338.38424804	    122.22252977	      7.08750593	      5.15326817	      3.66991806	      3.10208301	      5.16040018	      3.19916943	      2.79567222	     92.54968124	      4.60435481	      7.00170121	      5.24816080	     25.32261539	     15.99489726	      4.54428320	      3.29005952	      5.55999868	    114.77228831	     40.10921453	     74.03068576	     55.62701065	      0.00000000	      0.00000000	      0.00000000	      0.00000000	      0.00000000	      0.00000000	     34.62882902	      1.92138222	      4.08257924	     23.65020213	     49.30607865	     11.50139823	      9.69184809	      7.13435524	      7.65867420	      3.31558858	      3.89182697	      4.09761965	     10.59901921	      5.23155073	     10.23544825	      9.04335848	      1.89312787	      7.08750593	      5.15326817	      3.66991806	      3.10208301	      5.16040018	      4.82337963	      2.79567222	      1.94916004	      4.60435481	      7.00170121	      5.24816080	     25.32261539	     15.99489726	      4.54428320	      3.29005952	      5.55999868	     14.16553076	      0.00000000	      0.00000000	      0.00000000	     19.29335007	      9.01183753	     42.87124903	     47.22722560	      4.15443142	      3.61763171	     11.10046462	      5.87254015	     15.79834520	      2.47418809	      7.85939140	      2.51757599	     31.19797348	     31.19797348	     11.44808381	     11.44808381	     29.00657057	     29.00657057	    166.76211336	    122.74169459	     13.18331953	     -8.07775562	      3.90467916	     65.94080351	   -166.76211336	   -122.74169459	    -13.18331953	      3.18428440	     -4.68044169	      3.18169695	      0.02701810	      0.00173703	     -0.01782389	      0.00710646	     -0.00042787	      0.01073051	     -0.02701810	     -0.00173703	      0.01782389	     -0.00007053	      0.00084440	     -0.00002461	   -844.73533667	   -365.43983546	    290.22819751	     -7.92439445	     20.63646170	      3.08910960	    844.73533667	    365.43983546	   -290.22819751	    123.33549904	    -14.86779394	    340.08891424	   -256.94626041	   -122.51939401	    -71.95876220	      3.91551695	     -8.92399710	      1.21269975	    256.94626041	    122.51939401	     71.95876220	    -31.99663720	      6.32571909	    103.48168427	     -2.10093083	      0.00000000	    974.63102216	    631.18949354	     31.87269298	     20.46390300	      0.00000000	      0.00000000	      0.00000000	      0.00000000	      0.00000000	      0.00000000	      0.00000001	      0.00000000
